# xmcd
#
# Track frame offsets: 
#        150
#        13004
#        23730
#        43892
#        57336
#        69916
#        84244
#        99325
#        115626
#        132912
#        148122
#        166554
#        180242
#        189687
#        204114
#        214975
#        222960
#        231344
#        247930
#        274245
#
# Disc length: 3868 seconds
#
# Revision: 0
# Processed by: cddbd v1.5.2PL0 Copyright (c) Steve Scherf et al.
# Submitted via: ExactAudioCopy v0.95b3
#
DISCID=100f1a14
DTITLE=Cliff Richard  - They Said It Wouldn't Last - Live In Japan 197
DTITLE=2 - Disc 7
DYEAR=1900
DGENRE=
TTITLE0=Backscratcher
TTITLE1=Can't Let You Go
TTITLE2=Have A Little Talk With Myself
TTITLE3=Sunny Honey Girl
TTITLE4=The Minute You're Gone
TTITLE5=Flying Machine
TTITLE6=The Day I Met Marie
TTITLE7=Silvery Rain
TTITLE8=My Way
TTITLE9=Move It
TTITLE10=Living In Harmony
TTITLE11=Walk On By\\The Look Of Love
TTITLE12=Early In The Morning
TTITLE13=Goodbye Sam Hello Samantha
TTITLE14=Living Doll
TTITLE15=Bachelor Boy
TTITLE16=The Young Ones
TTITLE17=Congratulations
TTITLE18=The Girl Can't Help It
TTITLE19=Great Balls Of Fire
EXTD=
EXTT0=
EXTT1=
EXTT2=
EXTT3=
EXTT4=
EXTT5=
EXTT6=
EXTT7=
EXTT8=
EXTT9=
EXTT10=
EXTT11=
EXTT12=
EXTT13=
EXTT14=
EXTT15=
EXTT16=
EXTT17=
EXTT18=
EXTT19=
PLAYORDER=
